<mxfile host="Electron" agent="Mozilla/5.0 (X11; Linux x86_64) AppleWebKit/537.36 (KHTML, like Gecko) draw.io/26.2.2 Chrome/134.0.6998.178 Electron/35.1.2 Safari/537.36" version="26.2.2">
  <diagram name="Page-1" id="g16hq8ZeH8TeaPlCU7o7">
    <mxGraphModel dx="556" dy="350" grid="1" gridSize="10" guides="1" tooltips="1" connect="1" arrows="1" fold="1" page="1" pageScale="1" pageWidth="827" pageHeight="1169" math="0" shadow="0">
      <root>
        <mxCell id="0" />
        <mxCell id="1" parent="0" />
        <mxCell id="xKrB0nxLNKHjkaHpamlU-5" value="LoRa&amp;nbsp;&lt;div&gt;&lt;i&gt;&lt;font style=&quot;font-size: 10px;&quot;&gt;llarga distància&lt;/font&gt;&lt;/i&gt;&lt;/div&gt;" style="rounded=0;whiteSpace=wrap;html=1;fontFamily=Computer Modern;strokeColor=none;" parent="1" vertex="1">
          <mxGeometry x="240" y="240" width="70" height="40" as="geometry" />
        </mxCell>
        <mxCell id="xKrB0nxLNKHjkaHpamlU-2" value="..." style="rounded=0;whiteSpace=wrap;html=1;fontFamily=Computer Modern;" parent="1" vertex="1">
          <mxGeometry x="240" y="160" width="300" height="40" as="geometry" />
        </mxCell>
        <mxCell id="dv8Zd8WE_8hzVl0tdyEO-3" value="LoRa&lt;div&gt;&lt;i&gt;&lt;font style=&quot;font-size: 10px;&quot;&gt;alta velocitat&lt;/font&gt;&lt;/i&gt;&lt;/div&gt;" style="rounded=0;whiteSpace=wrap;html=1;fontFamily=Computer Modern;spacing=1.9685;strokeColor=none;" vertex="1" parent="1">
          <mxGeometry x="380" y="240" width="70" height="40" as="geometry" />
        </mxCell>
        <mxCell id="dv8Zd8WE_8hzVl0tdyEO-4" value="LoRaWAN" style="rounded=0;whiteSpace=wrap;html=1;fontFamily=Computer Modern;" vertex="1" parent="1">
          <mxGeometry x="450" y="200" width="90" height="80" as="geometry" />
        </mxCell>
        <mxCell id="dv8Zd8WE_8hzVl0tdyEO-2" value="LoRa&lt;div&gt;&lt;i&gt;&lt;font style=&quot;font-size: 10px;&quot;&gt;predeterminat&lt;/font&gt;&lt;/i&gt;&lt;/div&gt;" style="rounded=0;whiteSpace=wrap;html=1;fontFamily=Computer Modern;dashed=1;" vertex="1" parent="1">
          <mxGeometry x="310" y="240" width="70" height="40" as="geometry" />
        </mxCell>
        <mxCell id="xKrB0nxLNKHjkaHpamlU-3" value="Accés al medi" style="rounded=0;whiteSpace=wrap;html=1;fontFamily=Computer Modern;" parent="1" vertex="1">
          <mxGeometry x="240" y="200" width="210" height="40" as="geometry" />
        </mxCell>
        <mxCell id="xKrB0nxLNKHjkaHpamlU-6" value="Modulació LoRa" style="rounded=0;whiteSpace=wrap;html=1;fontFamily=Computer Modern;" parent="1" vertex="1">
          <mxGeometry x="240" y="280" width="300" height="20" as="geometry" />
        </mxCell>
        <mxCell id="dv8Zd8WE_8hzVl0tdyEO-5" value="" style="endArrow=none;html=1;rounded=0;exitX=0;exitY=1;exitDx=0;exitDy=0;entryX=0;entryY=0;entryDx=0;entryDy=0;" edge="1" parent="1" source="xKrB0nxLNKHjkaHpamlU-5" target="xKrB0nxLNKHjkaHpamlU-5">
          <mxGeometry width="50" height="50" relative="1" as="geometry">
            <mxPoint x="310" y="280" as="sourcePoint" />
            <mxPoint x="360" y="230" as="targetPoint" />
          </mxGeometry>
        </mxCell>
      </root>
    </mxGraphModel>
  </diagram>
</mxfile>
